<?xml version="1.0" encoding="iso-8859-1"?>
<!-- Generator: Adobe Illustrator 19.0.0, SVG Export Plug-In . SVG Version: 6.00 Build 0)  -->
<svg version="1.1" id="Layer_1" xmlns="http://www.w3.org/2000/svg" xmlns:xlink="http://www.w3.org/1999/xlink" x="0px" y="0px"
	 viewBox="0 0 512 512" style="enable-background:new 0 0 512 512;" xml:space="preserve">
<path style="fill:#D6D6D6;" d="M501.415,252.082l-177.277-64.219L259.929,10.585C259.26,8.756,257.63,7.837,256,7.837
	s-3.26,0.92-3.918,2.748l-64.219,177.277L10.585,252.071c-3.668,1.327-3.668,6.52,0,7.847l177.277,64.219l64.209,177.277
	c0.669,1.829,2.299,2.748,3.929,2.748s3.26-0.92,3.918-2.748l64.219-177.277l177.277-64.209
	C505.083,258.602,505.083,253.409,501.415,252.082z M256,298.141c-23.28,0-42.141-18.86-42.141-42.141s18.86-42.141,42.141-42.141
	s42.141,18.86,42.141,42.141S279.281,298.141,256,298.141z"/>
<path style="fill:#B3B3B3;" d="M213.86,256c0,23.28,18.86,42.141,42.141,42.141v206.022c-1.63,0-3.26-0.92-3.929-2.748
	l-64.209-177.277L10.585,259.918c-3.668-1.327-3.668-6.52,0-7.847l177.277-64.209l64.219-177.277
	c0.658-1.829,2.288-2.748,3.918-2.748v206.023C232.72,213.859,213.86,232.72,213.86,256z"/>
<path style="fill:#919191;" d="M256,191.564c-35.587,0-64.436,28.849-64.436,64.436s28.849,64.436,64.436,64.436
	s64.436-28.849,64.436-64.436S291.587,191.564,256,191.564z M256,298.144c-23.276,0-42.144-18.869-42.144-42.144
	c0-23.276,18.869-42.144,42.144-42.144c23.275,0,42.144,18.869,42.144,42.144S279.276,298.144,256,298.144z"/>
<path d="M305.981,256c0-27.559-22.421-49.981-49.981-49.981c-27.559,0-49.981,22.421-49.981,49.981s22.421,49.981,49.981,49.981
	C283.559,305.981,305.981,283.559,305.981,256z M221.693,256c0-18.917,15.39-34.307,34.307-34.307
	c18.917,0,34.307,15.39,34.307,34.307c0,18.917-15.39,34.307-34.307,34.307S221.693,274.917,221.693,256z"/>
<path d="M511.999,255.981c-0.01-5.105-3.114-9.526-7.916-11.266l-120.073-43.5c-4.067-1.473-8.563,0.629-10.037,4.699
	c-1.474,4.07,0.63,8.563,4.699,10.037l88.916,32.213H327.84c-3.641-33.602-30.401-60.362-64.003-64.003V44.392l52.936,146.137
	c0.792,2.186,2.513,3.908,4.699,4.699l24.416,8.846c4.072,1.472,8.563-0.631,10.037-4.699c1.473-4.07-0.63-8.563-4.699-10.037
	l-20.967-7.595L267.296,7.918C265.553,3.109,261.12,0,256.004,0h-0.002c0,0-0.001,0-0.002,0c-0.005,0-0.009,0.001-0.014,0.001
	c-5.107,0.007-9.531,3.113-11.271,7.917l-62.973,173.823L7.919,244.705C3.109,246.448,0,250.88,0,255.996
	c0,5.116,3.109,9.547,7.918,11.29l173.823,62.973l21.106,58.266c1.155,3.188,4.163,5.17,7.369,5.17c0.886,0,1.787-0.151,2.669-0.47
	c4.07-1.474,6.173-5.967,4.7-10.037l-22.356-61.715c-0.792-2.186-2.513-3.907-4.699-4.7L44.415,263.837H184.16
	c3.64,33.602,30.401,60.362,64.003,64.003v139.768l-18.719-51.676c-1.474-4.07-5.967-6.171-10.037-4.7
	c-4.07,1.474-6.173,5.967-4.7,10.037l29.997,82.813c1.742,4.81,6.173,7.917,11.288,7.918c0,0,0.001,0,0.002,0
	c5.115,0,9.545-3.106,11.29-7.917l62.973-173.823l173.823-62.965c4.811-1.742,7.918-6.173,7.919-11.289c0-0.001,0-0.002,0-0.003
	v-0.002C512,255.994,511.999,255.987,511.999,255.981z M199.401,256c0-9.205,2.257-18.337,6.525-26.412
	c2.023-3.826,0.561-8.568-3.265-10.591c-3.825-2.022-8.568-0.561-10.591,3.265c-4.24,8.021-6.919,16.852-7.908,25.901H44.393
	l146.137-52.936c2.186-0.792,3.907-2.513,4.699-4.699l52.935-146.114v139.74c-10.773,1.168-21.148,4.732-30.373,10.489
	c-3.672,2.29-4.791,7.125-2.5,10.797c2.291,3.672,7.124,4.79,10.797,2.5c8.954-5.587,19.298-8.54,29.912-8.54
	c31.209,0,56.599,25.39,56.599,56.599S287.209,312.599,256,312.599S199.401,287.209,199.401,256z M321.47,316.772
	c-2.186,0.792-3.907,2.513-4.699,4.699l-52.935,146.116V327.84c33.602-3.64,60.363-30.401,64.003-64.003h139.768L321.47,316.772z"/>
<g>
</g>
<g>
</g>
<g>
</g>
<g>
</g>
<g>
</g>
<g>
</g>
<g>
</g>
<g>
</g>
<g>
</g>
<g>
</g>
<g>
</g>
<g>
</g>
<g>
</g>
<g>
</g>
<g>
</g>
</svg>
