<?xml version="1.0" encoding="iso-8859-1"?>
<!-- Generator: Adobe Illustrator 19.0.0, SVG Export Plug-In . SVG Version: 6.00 Build 0)  -->
<svg version="1.1" id="Layer_1" xmlns="http://www.w3.org/2000/svg" xmlns:xlink="http://www.w3.org/1999/xlink" x="0px" y="0px"
	 viewBox="0 0 511.999 511.999" style="enable-background:new 0 0 511.999 511.999;" xml:space="preserve">
<path style="fill:#E7B636;" d="M49.23,318.399c-4.258,0-8.51-1.618-11.769-4.855l-22.806-22.691
	c-19.535-19.535-19.535-51.282-0.027-70.785c9.369-9.456,21.92-14.708,35.287-14.735c0.038,0,0.07,0,0.109,0
	c13.382,0,25.972,5.23,35.477,14.735l22.687,22.691c6.517,6.511,6.517,17.081,0,23.593L61.029,313.51
	C57.767,316.77,53.499,318.399,49.23,318.399z"/>
<path style="fill:#95673F;" d="M88.715,357.889c-4.382,0-8.642-1.733-11.796-4.889l-51.282-51.287l70.751-70.751l48.062,48.054
	c3.591,3.585,5.35,8.614,4.785,13.654c-0.565,5.045-3.395,9.554-7.691,12.259c-16.581,10.45-29.594,25.37-37.622,43.145
	c-2.259,4.991-6.822,8.559-12.21,9.543C90.713,357.801,89.708,357.889,88.715,357.889z"/>
<path style="fill:#ECCC71;" d="M277.35,407.497c-4.269,0-8.538-1.63-11.796-4.889l-99.885-99.885
	c-4.405-4.405-5.991-10.895-4.111-16.831c1.884-5.942,6.914-10.336,13.051-11.406c6.995-1.211,13.746-1.803,20.654-1.803h166.846
	c5.545,0,11.183,0.396,17.732,1.255c6.3,0.82,11.59,5.154,13.632,11.172c2.048,6.018,0.499,12.676-3.998,17.168l-100.33,100.33
	C285.888,405.868,281.619,407.497,277.35,407.497z"/>
<path style="fill:#E3B962;" d="M379.842,273.939c-6.55-0.858-12.188-1.255-17.732-1.255h-83.646V407.28
	c3.883-0.264,7.714-1.702,10.683-4.672l100.33-100.33c4.497-4.491,6.045-11.15,3.998-17.168
	C391.433,279.093,386.143,274.759,379.842,273.939z"/>
<path style="fill:#38384D;" d="M178.356,506.269H94.944c-9.217,0-16.685-7.468-16.685-16.685V389.477
	c0-14.018,2.526-27.883,7.506-41.218c9.396-24.961,27.265-46.154,50.336-59.711c12.133-6.946,24.912-11.639,38.17-14.04
	c5.388-0.961,10.901,0.761,14.767,4.622l99.885,99.885c6.517,6.511,6.517,17.081,0,23.593l-98.772,98.772
	C187.024,504.509,182.783,506.269,178.356,506.269z"/>
<path style="fill:#575771;" d="M475.777,363.302c1.902,8.425,2.902,17.187,2.902,26.175v100.108c0,9.214-7.47,16.685-16.685,16.685
	H138.078l227.17-227.17c3.882-3.882,9.36-5.959,14.784-5.104C428.317,281.602,465.422,317.446,475.777,363.302z"/>
<path style="fill:#494965;" d="M380.032,273.995c-5.423-0.854-10.902,1.222-14.784,5.104l-86.785,86.785V506.27h183.531
	c9.214,0,16.685-7.47,16.685-16.685V389.478c0-8.987-0.999-17.75-2.902-26.175C465.422,317.446,428.317,281.601,380.032,273.995z"/>
<path style="fill:#ECCC71;" d="M407.938,205.946H149.434c-7.593,0-14.23-5.127-16.147-12.481
	c-3.161-12.139-4.763-24.777-4.763-37.573c0-12.796,1.602-25.434,4.763-37.573c1.918-7.353,8.554-12.481,16.147-12.481h258.504
	c7.593,0,14.23,5.127,16.147,12.481c3.161,12.139,4.763,24.777,4.763,37.573c0,12.796-1.602,25.434-4.763,37.573
	C422.168,200.819,415.531,205.946,407.938,205.946z"/>
<path style="fill:#E3B962;" d="M407.938,105.838H278.463v100.108h129.475c7.593,0,14.23-5.127,16.147-12.481
	c3.161-12.139,4.763-24.777,4.763-37.573c0-12.796-1.602-25.434-4.763-37.573C422.168,110.965,415.531,105.838,407.938,105.838z"/>
<path style="fill:#494965;" d="M152.47,237.356c27.057,41.95,74.1,68.697,126.216,68.697c50.236,0,95.758-24.852,123.21-64.211
	c13.834-19.834,23.079-43.352,26.028-69.23c-10.223-0.036-19.987-0.036-19.987-0.036H149.434c0,0-9.764,0-19.988,0
	C132.174,196.545,140.3,218.488,152.47,237.356z"/>
<path style="fill:#38384D;" d="M278.463,172.576v133.463c0.076,0,0.147,0.014,0.222,0.014c50.236,0,95.758-24.852,123.21-64.211
	c13.834-19.834,23.08-43.352,26.028-69.23c-10.224-0.036-19.987-0.036-19.987-0.036L278.463,172.576L278.463,172.576z"/>
<g>
	<path style="fill:#494965;" d="M223.044,172.576c-9.217,0-16.685-7.468-16.685-16.685v-33.369c0-9.217,7.468-16.685,16.685-16.685
		s16.685,7.468,16.685,16.685v33.369C239.728,165.108,232.26,172.576,223.044,172.576z"/>
	<path style="fill:#494965;" d="M334.275,172.576c-9.217,0-16.685-7.468-16.685-16.685v-33.369c0-9.217,7.468-16.685,16.685-16.685
		c9.217,0,16.685,7.468,16.685,16.685v33.369C350.959,165.108,343.491,172.576,334.275,172.576z"/>
	<path style="fill:#494965;" d="M428.576,105.878h-33.369c-9.158,0-16.669-7.386-16.685-16.543
		C378.445,43.268,415.896,5.77,461.945,5.77h33.369c9.158,0,16.669,7.386,16.685,16.543
		C512.076,68.38,474.626,105.878,428.576,105.878z"/>
	<path style="fill:#494965;" d="M404.902,74.42c12.171,18.866,20.299,40.807,23.026,64.771c-10.224,0.016-19.989,0.016-19.989,0.016
		H149.434c0,0-9.763,0-19.986,0c2.948-25.913,12.194-49.432,26.028-69.266c27.453-39.359,72.974-64.211,123.21-64.211
		C330.802,5.73,377.844,32.477,404.902,74.42z"/>
</g>
<path style="fill:#38384D;" d="M278.686,5.73c-0.076,0-0.147,0.013-0.222,0.013v133.464h129.475c0,0,9.765,0,19.989-0.017
	c-2.727-23.964-10.855-45.905-23.026-64.771C377.844,32.477,330.802,5.73,278.686,5.73z"/>
<g>
</g>
<g>
</g>
<g>
</g>
<g>
</g>
<g>
</g>
<g>
</g>
<g>
</g>
<g>
</g>
<g>
</g>
<g>
</g>
<g>
</g>
<g>
</g>
<g>
</g>
<g>
</g>
<g>
</g>
</svg>
